<?xml version="1.0"?>
<!--Icons from directory ""-->
<svg xmlns="http://www.w3.org/2000/svg" width="32" height="224" viewBox="0 0 32 224"><svg xmlns:xlink="http://www.w3.org/1999/xlink" id="aquatic" style="enable-background:new 0 0 294.868 294.868" xml:space="preserve" viewBox="0 0 294.868 294.868" height="32" width="32" version="1.1" y="0" x="0px"><path d="m284.4 115.13c-3.853 4.085-9.53 4.085-11.396 4.085-3.46 0-7.738-0.573-13.868-1.859-4.815-1.01-8.961-2.017-12.617-2.904-7.192-1.747-12.39-3.01-17.283-3.01-2.758 0-7.79 1.195-13.119 2.461-8.297 1.971-18.622 4.423-28.609 4.423-10.083 0-20.696-0.784-27.383-1.389-2.221 8.326-7.505 22.056-19.499 31.884-16.307 13.36-28.397 19.32-28.904 19.567-3.097 1.51-6.821 0.719-9.034-1.922-2.213-2.639-2.345-6.445-0.319-9.23 0.067-0.095 8.217-11.616 7.904-24.564-0.124-5.151-0.311-9.187-0.502-12.261-10.157 2.994-27.451 9.687-36.372 22.286-13.518 19.07-19.062 48.45-17.577 58.09 1.546 10.042 1.731 10.042 6.496 10.042 10.382 0 19.104 0.425 28.928 5.773 8.69 4.729 13.476 9.903 13.992 10.478 1.949 2.165 2.468 5.263 1.331 7.944-1.137 2.683-3.724 4.464-6.635 4.568-2.808 0.105-11.305 0.813-16.766 2.795-2.9 1.053-5.398 2.285-7.814 3.477-3.865 1.907-7.516 3.708-11.775 4.211-1.385 0.164-2.807 0.244-4.153 0.219-1.57 3.647-4.242 7.994-8.736 11.443-3.44 2.641-6.94 4.27-10.028 5.706-3.792 1.765-6.788 3.159-9.088 6.011-6.028 7.475-8.051 15.58-8.07 15.661-0.788 3.237-3.622 5.583-6.95 5.734-0.115 0.006-0.231 0.008-0.346 0.008-3.191 0-6.054-2.012-7.095-5.056-0.469-1.367-4.422-13.896 0.839-32.235 1.881-6.556 4.795-12.231 7.612-17.721 4.584-8.929 8.543-16.64 6.882-26.089-7.808-44.411-7.269-80.521 1.601-107.32 13.79-41.69 47.178-64.915 53.731-69.146 3.251-2.101 6.177-3.949 8.643-5.485-2.287-1.822-5.194-3.736-8.65-5.205-7.866-3.344-11.172-4.258-12.088-4.476-0.059 0.002-0.116 0.002-0.173 0.002-3.265 0.001-5.775-2.155-6.73-5.339-0.992-3.306 0.851-6.855 3.822-8.61 0.565-0.335 14.078-8.191 31.887-8.191 3.675 0 7.326 0.337 10.851 1.002 10.983 2.073 18.745 5.17 26.251 8.164 7.329 2.924 14.252 5.686 24.588 7.863 5.021 1.058 9.645 1.874 14.116 2.664 15.383 2.716 28.668 5.062 48.531 15.205 25.924 13.24 40.501 27.726 41.047 40.787 0.115 2.753 0.055 5.213-0.181 7.375 2.426 1.213 5.374 2.746 8.352 4.44 12.123 6.895 17.207 12.059 17.546 17.822 0.23 4.01-0.85 7.31-3.2 9.81z" fill="#696969"/></svg><svg xmlns:xlink="http://www.w3.org/1999/xlink" id="birds" style="enable-background:new 0 0 567.803 567.803" xml:space="preserve" height="32" viewBox="0 0 567.803 567.803" width="32" version="1.1" y="32" x="0px">		<path d="m429.22 140.67c-3.55-18.124-3.24-37.071-6.238-55.337-4.076-24.831-12.575-50.074-30.698-67.528-22.48-21.652-56.039-23.705-81.065-5.336-2.306 1.689-2.962 5.7-4.219 8.715-0.396 0.951-0.723 1.934-1.053 2.991-0.522 1.673-1.392 3.407-1.95 3.859-0.339 0.273-0.673 0.547-1.012 0.82-0.196 0.159-0.375 0.334-0.547 0.522-0.277 0.306-2.057 1.485-4.035 2.566-6.883 3.762-13.839 7.267-19.841 11.983-3.794 2.982-6.324 7.577-9.033 11.942-1.191 1.914-1.889 3.737-1.461 4.141 0.429 0.404 2.579 0.428 4.807 0.073 1.636-0.261 3.239-0.587 4.696-1.249 26.88-12.179 56.08 5.9 57.631 35.362 0.93 17.658-6.912 34.557-15.855 49.809-6.512 11.102-15.083 29.454-25.581 37.189-9.03 6.654-18.838 5.965-28.659 12.007-22.26 13.693-38.075 42.938-51.147 64.603-12.791 21.195-24.121 43.248-37.43 64.113-12.448 19.519-29.343 35.186-42.856 53.048-1.358 1.795-1.628 4.892-0.922 7.03 0.6 1.807 1.252 3.985 1.705 5.866 0.531 2.191 2.464 4.183 4.333 5.439 11.379 7.658-26.805 37.009-38.784 46.883-1.738 1.433-1.269 2.938 0.971 3.17 30.413 3.146 64.085-6.356 90.927-17.14 2.774-1.114 5.353-2.782 7.891-4.398 4.569-2.909 8.988-6.055 13.558-8.964 4.872-3.101 47.524-3.386 42.82 5.944-11.795 23.391 0.702 47.586 4.614 71.127 1.595 9.584 0.008 17.263-1.697 24.803-0.498 2.199-2.701 4.247-4.917 4.655-8.213 1.514-15.646 3.847-9.869 6.907 4.5 2.383 7.678 5.312 9.857 7.923 1.444 1.73 2.554 5.121 2.93 7.345 1.387 8.286 4.484 16.813 7.274 24.541 0.767 2.117 2.358 2.297 3.517 0.363 9.731-16.219 12.252-25.59 31.996-21.167 13.003 2.909 26.247 6.858 39.271 9.62 2.207 0.47 2.513-0.257 0.689-1.583-6.516-4.741-12.999-9.563-19.837-13.818-1.914-1.191-1.755-1.506 0.473-1.188 11.738 1.677 14.754-8.136 21.608-12.146 1.946-1.139 1.999-1.098-0.217-0.686-9.837 1.82-19.796 3.346-29.727 2.379-29.319-2.852-38.059-26.761-33.252-54.301 2.505-14.361 15.537-61.849 30.409-67.557 7.368-2.827 15.806 2.668 19.074 9.85 3.271 7.177 2.758 15.43 2.248 23.301-0.511 7.87-0.878 16.16 2.627 23.228 3.146 6.34 8.98 10.824 13.75 16.055 4.77 5.227 8.727 12.333 6.781 19.135-1.747 6.116-7.94 10.114-14.207 11.188-4.933 0.845-9.951 0.216-14.9-0.723-2.215-0.42-3.039 0.8-1.31 2.244 12.077 10.086 41.294 0.547 35.146 22.347-1.273 4.504-2.297 9.082-3.387 13.774-0.51 2.194 0.734 3.215 2.697 2.108 8.237-4.626 13.476-10.881 12.195-21.444-0.155-1.285 47.564 12.971 50.637 13.962 3.7 1.195 7.601 1.791 11.922 2.546 2.219 0.388 3.488-1.008 2.709-3.121-2.236-6.083-5.022-10.212-12-11.452-6.658-1.188-13.284-3.183-19.693-5.455-2.126-0.751-2.012-1.433 0.24-1.318 12.016 0.596 37.038 3.391 37.087-8.992 0.009-2.252-2.509-3.7-4.716-3.252-4.247 0.869-8.52 1.86-12.771 1.767-15.985-0.358-34.138 2.469-46.206-8.115-11.836-10.375-14.521-33.215-13.537-47.735 5.002-73.995 79.294-114.28 100.68-183.29 10.33-33.346 1.938-63.252-15.435-92.367-8.76-14.7-16.41-22.76-19.7-39.59z" fill="#44910d"/></svg><svg xmlns:xlink="http://www.w3.org/1999/xlink" id="home" style="enable-background:new 0 0 611.997 611.998" xml:space="preserve" height="32" viewBox="0 0 611.997 611.998" width="32" version="1.1" y="64" x="0px">	<g fill="#04aeda">		<path d="m511.11 300.25c-9.94 0-17.638 7.663-17.638 17.651v241.1h-125.07v-98.453c0-9.236-7.697-17.31-17.002-17.31h-90.435c-9.948 0-17.96 8.073-17.96 17.31v98.453h-124.76v-233.1c0-9.306-7.69-17.036-17.638-17.036-9.298 0-16.995 7.73-16.995 17.036v250.75c0 9.305 7.697 17.036 16.995 17.036h160.36c9.298 0 16.995-7.731 16.995-17.036v-98.454h55.801v98.454c0 9.305 7.697 17.036 17.639 17.036h159.72c9.299 0 16.995-7.731 16.995-17.036v-258.75c-0.01-9.98-7.71-17.65-17.01-17.65z"/>		<path d="m607 314l-139.18-139.78v-95.301c0-9.921-8.019-17.583-17.96-17.583-9.305 0-17.001 7.663-17.001 17.583v60.345l-114.81-115.49c-3.518-3.558-7.697-5.474-11.864-5.474-4.81 0-8.983 1.984-12.507 5.474l-288.32 288.32c-6.917 6.91-7.375 17.994 0 24.357 6.411 7.389 17.454 6.91 24.371 0l276.45-275.79 275.81 278.39c2.873 2.874 7.054 4.516 12.507 4.516 4.81 0 8.976-1.642 12.507-4.516 6.41-6.44 6.89-18.07-0.01-25.05z"/>	</g></svg><svg xmlns:xlink="http://www.w3.org/1999/xlink" id="insects" style="enable-background:new 0 0 56.426 56.426" xml:space="preserve" viewBox="0 0 56.426 56.426" height="32" width="32" version="1.1" y="96" x="0px">	<g fill="#94152c">		<path d="m11.655 46.002c1.21 0.317 2.007 0.146 2.359 0.024 0.116-0.039 0.177-0.18 0.15-0.301-2.058-8.545 8.11-20.599 9.46-22.153 0.081-0.092 0.17-0.263 0.192-0.384 0.175-0.93 0.616-4.638-2.86-6.892-4.32-2.8-5.771-5.181-6.124-5.87-0.057-0.11-0.098-0.301-0.105-0.424-0.077-1.515-0.735-10.266-5.471-9.996-5.864 0.335-5.811 18.18-5.811 18.18-0.823 15.936 6.73 26.152 7.857 27.582 0.076 0.096 0.234 0.204 0.353 0.234z"/>		<path d="m15.822 46.735c-0.054-1.365 0.423-8.613 16.519-9.713 7.408-0.508 12.075-0.301 15.014 0.219 0.119 0.021 0.283-0.035 0.359-0.131 0.18-0.227 0.348-0.469 0.495-0.725 0.579-1.003 1.349-3.039-0.019-5.422-1.705-2.967-0.594-5.653-0.491-5.885 1.474-2.83 1.858-5.212 1.147-7.078-0.711-1.869-2.275-2.48-2.344-2.506 0 0-0.019-0.008-0.039-0.016-0.022-0.009-0.062-0.019-0.084-0.022l-0.043-0.006c-0.759-0.118-1.537-0.178-2.314-0.178-10.248 0-20.182 10.305-25.575 19.128-3.312 5.418-3.659 9.438-3.393 11.815 0.014 0.122 0.109 0.276 0.211 0.347l0.391 0.267c0.103 0.072 0.172 0.029 0.166-0.094z"/>		<path d="m33.375 38.347c-0.123 0.008-0.321 0.021-0.444 0.029-15.878 1.152-16.35 8.341-16.296 9.699 0.005 0.123 0.06 0.311 0.118 0.419 4.617 8.627 27.767 2.598 30.999 0.888 2.372-1.252 2.176-3.472 2.049-4.171-0.022-0.121 0.037-0.267 0.142-0.33 0.727-0.444 3.269-2.096 3.142-3.366-0.149-1.475-2.132-4.346-19.71-3.168z"/>		<path d="m12.987 47.364c-0.177 0.013-0.346 0.047-0.506 0.101-0.116 0.038-0.275 0.009-0.364-0.075-1.217-1.189-4.253-3.672-8.498-3.769-0.152-0.004-0.28 0.118-0.283 0.272-0.004 0.152 0.118 0.28 0.272 0.283 3.896 0.088 6.789 2.359 8.017 3.518 0.09 0.086 0.084 0.219-0.002 0.307-0.082 0.084-0.157 0.175-0.224 0.271-0.07 0.102-0.205 0.146-0.316 0.092-1.189-0.565-3.975-1.618-6.773-0.719-0.146 0.047-0.226 0.203-0.179 0.35 0.047 0.146 0.204 0.227 0.35 0.179 2.613-0.84 5.304 0.194 6.399 0.714 0.112 0.053 0.176 0.193 0.161 0.315-0.017 0.136-0.021 0.272-0.011 0.413 0.08 1.162 1.089 2.039 2.25 1.957 1.162-0.081 2.039-1.09 1.957-2.25-0.081-1.163-1.089-2.039-2.25-1.959z"/>		<path d="m28.464 56.019c-0.645-0.463-0.904-0.955-1.006-1.227-0.042-0.114-0.158-0.232-0.277-0.257-0.86-0.175-4.104-0.868-6.812-1.899-2.703-1.029-4.384-3.715-4.81-4.462-0.06-0.106-0.082-0.098-0.058 0.022 0.221 1.082-0.01 1.986-0.144 2.377-0.04 0.115-0.033 0.295 0.029 0.4 3.348 5.82 9.096 4.356 10.788 4.901 1.708 0.553 3.247 0.834 2.29 0.145z"/>	</g></svg><svg xmlns:xlink="http://www.w3.org/1999/xlink" id="logo" style="enable-background:new 0 0 249.072 249.072" xml:space="preserve" viewBox="0 0 249.072 249.072" height="32" width="32" version="1.1" y="128" x="0px"><path d="m243.15 65.825c-9.978-5.69-6.233-10.809-10.392-13.727-4.158-2.904-6.514-3.043-6.514-3.043s1.878-8.875-8.139-8.73-13.26-23.551-39.111-0.809c0 0 3.305-1.152 5.614 0 2.309 1.164-18.997 4.469-27.919 20.652 5.95-2.637 6.613-0.76 6.613 2.149 0 10.068-11.775 23.676-34.387 24.969-9.999 0.584-16.919-4.859-40.331-4.859-23.419 0-38.585 19.725-45.903 48.662-7.322 28.936-10.979 32.932-18.297 32.932-7.316 0-14.301-9.311-13.969-18.625 0.331-9.316 1.917-18.195 6.766-21.523 4.852-3.326 0.278-12.041-7.342-7.611-7.621 4.436-9.974 16.469-9.838 29.361 0.139 12.877 5.543 30.34 23.691 30.34 18.151 0 25.493-18.846 25.493-18.846s-1.803 20.645 4.295 51.68c-0.557 4.148-2.215 10.67 9.145 10.531 11.358-0.141 14.413-0.695 14.131-7.063-0.274-6.369-3.879-7.07-6.788-7.07-2.907 0-7.343 0.83-6.929-4.855 0.42-5.67 5.047-43.08 33.724-58.592 14.413 5.393 23.578 13.857 52.392 5.539 1.53-0.283 4.576 8.438 4.576 19.25 0 10.809 11.967 23.287 14.323 35.746 0.833 5.268-5.403 17.045 5.405 17.045s16.901 1.52 16.629-5.82c-0.274-7.342-2.221-9.293-6.65-9.43-4.436-0.133-8.733-2.344-7.76-11.766 0.972-9.43-1.803-33.381 5.123-42.811 1.252-1.664 20.924 0.41 32.146-18.98 0.692 5.688-1.523 13.16-1.523 13.16s21.748-17.316 14.542-42.392c-0.968-2.074 1.941-2.213 3.465-0.279 0-6.373-5.261-14.408-5.261-14.408s-0.004-3.742 3.737-0.693c3.743 3.059 16.073 10.531 17.736-8.451 2.34-0.43 7.47-5.973-2.51-11.643z" fill="#1a0d0f"/></svg><svg xmlns:xlink="http://www.w3.org/1999/xlink" id="mammals" style="enable-background:new 0 0 48.839 48.839" xml:space="preserve" viewBox="0 0 48.839 48.839" height="32" width="32" version="1.1" y="160" x="0px">	<path d="m39.041 36.843c2.054 3.234 3.022 4.951 3.022 6.742 0 3.537-2.627 5.252-6.166 5.252-1.56 0-2.567-0.002-5.112-1.326 0 0-1.649-1.509-5.508-1.354-3.895-0.154-5.545 1.373-5.545 1.373-2.545 1.323-3.516 1.309-5.074 1.309-3.539 0-6.168-1.713-6.168-5.252 0-1.791 0.971-3.506 3.024-6.742 0 0 3.881-6.445 7.244-9.477 2.43-2.188 5.973-2.18 5.973-2.18h1.093v-0.001s3.698-0.009 5.976 2.181c3.259 3.142 7.241 9.476 7.241 9.475zm-22.41-15.965c3.7 0 6.699-4.674 6.699-10.439s-2.999-10.439-6.699-10.439-6.699 4.674-6.699 10.439 2.999 10.439 6.699 10.439zm-6.42 10.11c2.727-1.259 3.349-5.723 1.388-9.971s-5.761-6.672-8.488-5.414-3.348 5.723-1.388 9.971c1.961 4.248 5.761 6.671 8.488 5.414zm21.995-10.11c3.7 0 6.7-4.674 6.7-10.439s-3-10.439-6.7-10.439-6.699 4.674-6.699 10.439c0 5.765 2.999 10.439 6.699 10.439zm13.521-5.276c-2.728-1.259-6.527 1.165-8.488 5.414s-1.339 8.713 1.389 9.972c2.728 1.258 6.527-1.166 8.488-5.414s1.339-8.713-1.389-9.972z" fill="#cca300"/></svg><svg xmlns:xlink="http://www.w3.org/1999/xlink" id="reptiles" style="enable-background:new 0 0 492.391 492.391" xml:space="preserve" viewBox="0 0 492.391 492.391" height="32" width="32" version="1.1" y="192" x="0px"><path d="m492.04 292.28c-1.331-4.818-6.359-7.645-11.192-6.307-2.545 0.713-4.454 2.456-5.57 4.634l-18.573 5.211 12.313-12.673c2.435 0.064 4.864-0.801 6.707-2.68 3.506-3.61 3.412-9.365-0.19-12.842-3.59-3.504-9.352-3.433-12.843 0.164-1.838 1.889-2.625 4.36-2.495 6.802l-13.256 13.655 5.04-20.292c2.132-1.176 3.813-3.152 4.436-5.705 1.201-4.868-1.743-9.792-6.612-11.009-4.865-1.208-9.78 1.755-11.015 6.621-0.622 2.554-0.065 5.085 1.266 7.119l-6.66 26.758c-0.055 0.001-13.52 0.195-14.895 0.215-0.082-0.141-0.159-0.272-0.252-0.43-0.293-0.488-32.188-52.294-32.485-52.778l-0.192 0.162c-2.256-15.37-7.587-29.139-15.495-39.404-40.426-52.431-22.85-106.76-22.85-106.76l-0.015 0.008 3.059-8.388c4.26-11.682-0.018-24.769-10.361-31.686l-55.279-37.009c-7.847-5.25-17.85-6.017-26.42-2.04-8.564 3.988-14.408 12.153-15.448 21.532l-7.254 66.147c-1.358 12.362 5.908 24.058 17.597 28.316 0 0 21.258 6.215 27.504 10.029 11.286 6.892 34.535 36.863 18.511 72.925-5.601 0.218-56.918 2.185-56.933 2.185 0.01 0.001-0.026 0.004-0.084 0.007-0.273-1.793-0.582-3.814-0.75-4.92l10.856-31.437c2.547-0.985 4.706-2.935 5.665-5.723 1.73-5.044-0.943-10.527-5.972-12.255-5.009-1.746-10.533 0.928-12.279 5.962-0.959 2.802-0.466 5.667 0.963 8.03l-7.078 20.419-3.826-19.5c1.712-2.146 2.592-4.915 2.034-7.811-1.026-5.236-6.117-8.629-11.32-7.606-5.234 1.017-8.658 6.1-7.636 11.327 0.573 2.89 2.45 5.114 4.852 6.446l4.113 20.969-15.4-17.522c0.414-2.712-0.226-5.56-2.179-7.784-3.524-3.997-9.608-4.396-13.607-0.892-4.002 3.524-4.391 9.6-0.883 13.618 1.954 2.217 4.691 3.21 7.429 3.156l20.364 23.189c-3.062 31.509 15.676 32.036 50.047 41.323-19.467 18.804-47.628 38.007-85.494 44.57 3.015-20.341 6.018-27.967-3.982-41.41-1.013-0.807-3.851-3.751-7.366-5.941-8.731-4.876-12.648-3.818-33.304-2.83l-13.605-26.428c1.039-2.521 1.102-5.42-0.243-8.045-2.447-4.738-8.276-6.577-12.998-4.135-4.707 2.415-6.597 8.256-4.163 12.999 1.358 2.633 3.811 4.249 6.498 4.844l9.913 19.235-16.798-10.703c-0.366-2.722-1.759-5.27-4.24-6.863-4.482-2.87-10.454-1.536-13.304 2.948-2.881 4.481-1.554 10.479 2.913 13.335 2.516 1.586 5.412 1.763 8.035 0.944l17.711 11.295-0.018 0.175-22.989-0.919c-5.685-7.336-16.813-3.31-17.18 5.435-0.225 5.323 3.923 9.799 9.238 10.04 2.96 0.105 5.555-1.186 7.41-3.202l32.506 1.314 0.014-0.368c1 0.263 19.916 5.282 21.117 5.592-2.248 4.647-13.399 27.565-13.399 27.565-54.254-0.31-134.16-20.99-114.96-145.21 0.631-3.979-5.12-5.458-6.47-1.633-18.152 51.496-35.523 156.54 97.695 205.62 0 0 31.412 9.549 69.452 14.72 1.04 1.155 2.063 2.283 3.25 3.604 0.79 0.874 22.44 24.825 23.231 25.698-1 0.889-11.343 10.073-14.764 13.135l-0.141-0.31-29.782 13c-2.447-1.202-5.347-1.457-8.051-0.282-4.884 2.139-7.109 7.83-4.964 12.694 2.096 4.853 7.813 7.126 12.695 4.999 2.703-1.186 4.468-3.509 5.251-6.149l19.819-8.647-11.75 16.044c-2.723 0.184-5.36 1.418-7.106 3.793-3.171 4.299-2.211 10.345 2.062 13.468 4.31 3.161 10.359 2.246 13.512-2.052 1.732-2.393 2.101-5.274 1.456-7.932l12.62-17.22-2.453 23.181c-2.272 1.548-3.938 3.942-4.239 6.886-0.546 5.302 3.281 10.031 8.564 10.598 5.303 0.562 10.041-3.275 10.617-8.579 0.303-2.948-0.818-5.624-2.707-7.6l3.22-30.491s6.755-2.952 16.198-7.075c2.521-1.171 5.449-3.188 7.703-5.661 2.291-1.407 6.066-9.741 5.955-9.517 4.915-13.454-1.026-22.754-5.666-31.325 84.019 2.698 128.62-37.473 145.15-82.533 3.887 3.503 17.033 15.435 17.033 15.435 15.684 10.779 19.43 7.027 52.69-3.195l0.014 0.083 29.701-8.326c2.081 1.265 4.626 1.745 7.156 1.042 4.81-1.35 7.63-6.38 6.25-11.19z" fill="#706ca8"/></svg></svg>
